<svg xmlns="http://www.w3.org/2000/svg" width="280.323" height="132.684" viewBox="0 0 280.323 132.684"><defs><style>.a{fill:#ffbc00;}.b{fill:#fff;}.c{fill:#a07800;}.d{fill:#255ca6;}.e{fill:#fcc716;}</style></defs><g transform="translate(-904.322 -577.185)"><g transform="translate(920.638 685.69)"><path class="a" d="M925.98,628.434c-1.249,2.465-3.145,5.044-4.511,5.044-.379,0-.53-.343-.53-.909,0-2.54,3.184-6.675,4.171-8.758.984-1.971.644-3.639,0-4.4-.455-.53-1.1-.493-1.556.265l-.719,1.177a2.473,2.473,0,0,0-2.54-1.67c-1.932,0-5.041,1.781-8.074,6.142a10.222,10.222,0,0,0-2.047,5.649c0,2.234,1.213,3.865,3.452,3.865,1.514,0,3.22-1.177,4.319-2.236a3.045,3.045,0,0,0,3.3,2.39c2.311,0,4.737-2.01,5.724-4.1a3.155,3.155,0,0,0,.15-2.465C926.739,627.639,926.4,627.678,925.98,628.434Zm-7.012-.756c-1.857,3.181-3.6,5.5-4.854,5.5-.376,0-.527-.455-.527-1.138a10.639,10.639,0,0,1,1.782-5c1.932-3.109,4.548-5.5,5.306-5.5.379,0,.455.265.455.722C921.129,623.242,920.446,625.1,918.968,627.678Z" transform="translate(-910.174 -610.816)"/><path class="a" d="M943.157,633.719c-1.249,2.465-3.142,5.044-4.511,5.044-.376,0-.53-.343-.53-.909,0-2.54,3.184-6.675,4.171-8.758.987-1.971.644-3.639,0-4.4-.454-.53-1.1-.493-1.556.265l-.717,1.177a2.474,2.474,0,0,0-2.543-1.67c-1.932,0-5.041,1.781-8.074,6.142a11.413,11.413,0,0,0-1.319,2.431,1.461,1.461,0,0,0-.237.3c-1.439,2.727-3.639,5.267-5.381,5.267-.494,0-.722-.644-.722-1.553a14.828,14.828,0,0,1,1.252-4.969c3.335-2.233,7.467-6.708,8.643-11.217a5.114,5.114,0,0,0,.226-1.592,3.7,3.7,0,0,0-1.249-2.766c-.722-.686-1.4-.457-2.125.262a41.93,41.93,0,0,0-9.477,17.211,9.052,9.052,0,0,0-.265,2.158c0,2.618,1.439,3.945,3.753,3.945a7.773,7.773,0,0,0,5.063-2.4,3.178,3.178,0,0,0,3.243,2.434c1.514,0,3.22-1.177,4.322-2.236a3.042,3.042,0,0,0,3.3,2.39c2.311,0,4.737-2.01,5.724-4.1a3.173,3.173,0,0,0,.153-2.465C943.915,632.924,943.576,632.963,943.157,633.719Zm-15.845-9.856c1.288-2.236,2.272-3.714,2.426-3.636.226.151-.268,1.818-1.556,3.979a23.744,23.744,0,0,1-3.789,4.815C924.657,628.374,926.325,625.533,927.312,623.863Zm8.836,9.1c-1.86,3.181-3.6,5.5-4.851,5.5-.382,0-.533-.455-.533-1.138a10.671,10.671,0,0,1,1.782-5c1.932-3.109,4.55-5.5,5.306-5.5.379,0,.455.265.455.722C938.306,628.527,937.623,630.384,936.148,632.963Z" transform="translate(-894.849 -616.101)"/><path class="a" d="M994.8,632.64c-.382-.795-.722-.756-1.138,0-1.252,2.465-3.145,5.044-4.511,5.044-.379,0-.532-.343-.532-.909,0-2.54,3.187-6.675,4.171-8.758.987-1.971.647-3.639,0-4.4-.454-.53-1.1-.493-1.553.265l-.719,1.177a2.473,2.473,0,0,0-2.54-1.67c-1.935,0-5.044,1.781-8.077,6.142a11.249,11.249,0,0,0-1.7,3.541c-1.311,2.54-3.084,4.57-4.444,4.57-.641,0-1.023-.8-1.023-1.932a7.2,7.2,0,0,1,.683-2.844c1.327-2.88,3.488-6.633,4.93-9.1a11.448,11.448,0,0,1,2.5-.112c.909.112,1.174-.343.795-1.023a2.734,2.734,0,0,0-2.086-1.216,6.686,6.686,0,0,0,.608-2.615,3.448,3.448,0,0,0-.415-1.553c-.418-.722-.873-.761-1.442.075-.873,1.249-1.67,2.5-2.844,4.548a21.564,21.564,0,0,1-2.73.075c-.873-.036-1.249.34-.719,1.14a2.955,2.955,0,0,0,2.158,1.023,80.931,80.931,0,0,0-3.714,7.581,9.7,9.7,0,0,0-.368,1.107c-1.235,2.621-3.223,4.916-4.5,4.807-.569-.039-.87-.647-.87-1.595a5.348,5.348,0,0,1,.268-1.664,22.149,22.149,0,0,1,4.168-6.368,2.731,2.731,0,0,0,.569-1.517,4.03,4.03,0,0,0-1.1-2.543c-.53-.569-.909-.454-1.631.039a10.789,10.789,0,0,1-3.374,1.592,11.93,11.93,0,0,0,.647-3.223c0-.834-.379-1.363-1.177-1.324-1.213.075-3.561,2.841-3.561,4.773a1.842,1.842,0,0,0,1.135,1.784c-1.743,5.345-4.815,9.667-7.012,9.892-.379.039-.569-.3-.569-.909a7.577,7.577,0,0,1,.569-2.161,35.592,35.592,0,0,1,1.857-3.449c.569-1.062,1.177-1.971,1.631-2.995a5.421,5.421,0,0,0,.569-2.35,2.884,2.884,0,0,0-.683-1.971c-.494-.53-1.023-.343-1.517.265-.153.229-.416.608-.719,1.1a2.378,2.378,0,0,0-2.426-1.592c-2.008,0-5.08,1.706-8.114,6.067a11.946,11.946,0,0,0-1.425,2.746,1.161,1.161,0,0,0-.212.248c-1.517,2.272-4.129,5.192-6.973,5.155-1.023-.039-1.706-1.062-1.706-2.732a10.32,10.32,0,0,1,1.138-4.244c1.517-3.07,3.981-5.535,4.436-5.155.151.153-.114.834-.494,1.592a7.752,7.752,0,0,0-.87,2.8,2.547,2.547,0,0,0,1.324,2.161c.758.379,1.1.3,1.363-.418a12.266,12.266,0,0,1,.686-1.553c.717-1.48,1.324-2.883.756-4.132a4.787,4.787,0,0,0-3.6-2.426c-2.2,0-5.192,2.047-7.127,5.953a9.574,9.574,0,0,0-1.171,4.4c0,3.031,1.932,5.27,5.417,5.231a9.615,9.615,0,0,0,6.625-3.1,3.193,3.193,0,0,0,3.276,2.947,6.259,6.259,0,0,0,4.319-2.272c.307,1.517,1.517,2.465,3.488,2.35,4.1-.3,7.545-5.878,9.4-11.108a7.608,7.608,0,0,0,2.766-.683,19.515,19.515,0,0,0-3.753,5.953,7.841,7.841,0,0,0-.3,2.01,3.671,3.671,0,0,0,3.753,3.942,6.735,6.735,0,0,0,4.8-2.191,3.629,3.629,0,0,0,3.29,2.152,6.86,6.86,0,0,0,4.662-2.295,3.164,3.164,0,0,0,3.19,2.256c1.514,0,3.22-1.177,4.322-2.236a3.043,3.043,0,0,0,3.3,2.389c2.311,0,4.737-2.01,5.721-4.1A3.148,3.148,0,0,0,994.8,632.64Zm-43.8-.831c-1.857,3.257-3.675,5.459-4.927,5.459-.3,0-.418-.494-.418-1.14a10.188,10.188,0,0,1,1.706-4.966c2.01-3.181,4.511-5.459,5.535-5.459.151,0,.229.229.229.722C953.124,627.409,952.44,629.266,951,631.809Zm35.65.075c-1.857,3.181-3.6,5.5-4.852,5.5-.379,0-.53-.455-.53-1.138a10.67,10.67,0,0,1,1.782-5c1.932-3.109,4.55-5.5,5.306-5.5.379,0,.455.265.455.722C988.81,627.448,988.126,629.3,986.649,631.884Z" transform="translate(-874.051 -615.022)"/></g><g transform="translate(922.141 612.634)"><g transform="translate(0 2.71)"><path class="a" d="M921.615,610.678a6.849,6.849,0,0,0,5.013,2,8.028,8.028,0,0,0,3.385-.772,8.272,8.272,0,0,0,2.769-2h.616l5.275,4.486v.616a15.511,15.511,0,0,1-2.682,2.484,15.032,15.032,0,0,1-4.219,2.155,15.792,15.792,0,0,1-5.144.853,17.457,17.457,0,0,1-6.243-1.118,15.543,15.543,0,0,1-5.1-3.123,14.474,14.474,0,0,1,0-21.146,15.494,15.494,0,0,1,5.1-3.12,17.405,17.405,0,0,1,6.243-1.124,15.865,15.865,0,0,1,6.77,1.475,14.9,14.9,0,0,1,5.275,4.023v.616l-5.275,4.481h-.616a8.34,8.34,0,0,0-2.769-2,8.064,8.064,0,0,0-3.385-.77,6.838,6.838,0,0,0-5.013,2,7.168,7.168,0,0,0,0,9.979Z" transform="translate(-910.713 -590.871)"/><g transform="translate(31.562 0.53)"><path class="a" d="M943.928,598.093H930.738v3.956h9.937v6.594h-9.937V612.6h13.191v7.037h-21.9V591.061h21.9Z" transform="translate(-922.033 -591.061)"/></g><g transform="translate(55.303)"><path class="a" d="M964.706,592.148l.22.616-1.453,5.847-.524.307a1.807,1.807,0,0,0-1.628-.086,1.862,1.862,0,0,0-.594.572,13.459,13.459,0,0,0-1.076,2.111l-8.178,18.463H944l-8.178-18.463q-.439-.97-.834-1.717a2.181,2.181,0,0,0-.836-.965,1.8,1.8,0,0,0-1.625.086l-.53-.307-1.45-5.847.22-.616a6.9,6.9,0,0,1,4.441-1.277,7.72,7.72,0,0,1,4.768,1.408,9.7,9.7,0,0,1,3.011,4.221l4.924,12.131,4.924-12.131a10.262,10.262,0,0,1,2.925-4.2,7.041,7.041,0,0,1,4.55-1.43,9.484,9.484,0,0,1,2.35.31A5.417,5.417,0,0,1,964.706,592.148Z" transform="translate(-930.548 -590.871)"/></g><g transform="translate(91.614 0.53)"><path class="a" d="M961.683,597.962h-4.7v14.772h4.7v6.9H943.571v-6.9h4.706V597.962h-4.706v-6.9h18.112Z" transform="translate(-943.571 -591.061)"/></g><g transform="translate(112.277)"><path class="a" d="M961.886,610.678a6.847,6.847,0,0,0,5.01,2,8.01,8.01,0,0,0,3.385-.772,8.216,8.216,0,0,0,2.769-2h.616l5.278,4.486v.616a15.619,15.619,0,0,1-2.682,2.484,15.018,15.018,0,0,1-4.221,2.155,15.782,15.782,0,0,1-5.144.853,17.46,17.46,0,0,1-6.243-1.118,15.572,15.572,0,0,1-5.1-3.123,14.481,14.481,0,0,1,0-21.146,15.523,15.523,0,0,1,5.1-3.12,17.407,17.407,0,0,1,6.243-1.124,15.855,15.855,0,0,1,6.77,1.475,14.888,14.888,0,0,1,5.278,4.023v.616l-5.278,4.481h-.616a8.283,8.283,0,0,0-2.769-2,8.045,8.045,0,0,0-3.385-.77,6.836,6.836,0,0,0-5.01,2,7.168,7.168,0,0,0,0,9.979Z" transform="translate(-950.982 -590.871)"/></g><g transform="translate(143.842 0.53)"><path class="a" d="M980.987,591.061h8.7v28.576h-8.7V608.908h-9.979v10.729h-8.7V591.061h8.7v10.815h9.979Z" transform="translate(-962.303 -591.061)"/></g><g transform="translate(176.768 0.53)"><path class="a" d="M996.007,598.093H982.817v3.956h9.937v6.594h-9.937V612.6h13.191v7.037h-21.9V591.061h21.9Z" transform="translate(-974.112 -591.061)"/></g><g transform="translate(201.607)"><path class="a" d="M983.021,614.877l3.781-4.662h.658a10.161,10.161,0,0,0,3.231,2.111,9.794,9.794,0,0,0,3.937.923,4.4,4.4,0,0,0,2.175-.482,1.439,1.439,0,0,0,.856-1.274,1.174,1.174,0,0,0-.307-.792,2.4,2.4,0,0,0-.834-.594q-.531-.243-3.165-1.079a20.9,20.9,0,0,1-6.245-2.855,7.621,7.621,0,0,1-2.571-3.142,8.976,8.976,0,0,1-.636-3.234,7.9,7.9,0,0,1,1.383-4.681,9.4,9.4,0,0,1,3.957-3.1,15.044,15.044,0,0,1,6.134-1.143,16.527,16.527,0,0,1,6.067,1.1,11.473,11.473,0,0,1,4.573,3.12v.878l-3.784,4.4h-.7a8.469,8.469,0,0,0-5.978-2.682,3.815,3.815,0,0,0-1.913.416,1.324,1.324,0,0,0-.725,1.21,1.708,1.708,0,0,0,.68,1.3,9.723,9.723,0,0,0,2.925,1.341,30.477,30.477,0,0,1,6.176,2.638,8.36,8.36,0,0,1,2.462,11.649,9.235,9.235,0,0,1-4,3.123,15.841,15.841,0,0,1-6.351,1.14,17.008,17.008,0,0,1-6.99-1.316,13.165,13.165,0,0,1-4.793-3.519Z" transform="translate(-983.021 -590.871)"/></g><g transform="translate(1.539 36.776)"><path class="a" d="M924.8,604.061q5.5,0,8.529,2.638a9.847,9.847,0,0,1,.042,14.178q-2.99,2.614-8.571,2.613H919.97v9.148h-8.7V604.061ZM924.5,616.9a3.073,3.073,0,0,0,2.13-.77,2.667,2.667,0,0,0,.859-2.088,2.8,2.8,0,0,0-.859-2.155,3.026,3.026,0,0,0-2.13-.792H919.97v5.8Z" transform="translate(-911.265 -604.061)"/></g><g transform="translate(30.115 36.776)"><path class="a" d="M943.407,611.093H930.219v3.956h9.934v6.594h-9.934V625.6h13.188v7.037H921.514V604.061h21.893Z" transform="translate(-921.514 -604.061)"/></g><g transform="translate(56.578 36.776)"><path class="a" d="M956.2,625.427l1.45,5.847-.22.613a5.432,5.432,0,0,1-2,.923,9.37,9.37,0,0,1-2.44.351,8.394,8.394,0,0,1-4.572-1.1,10.457,10.457,0,0,1-3.209-3.694.85.85,0,0,1-.131-.22q-.092-.176-1.015-1.868a12.527,12.527,0,0,0-1.865-2.68,2.608,2.608,0,0,0-1.782-.99h-.7v10.023H931V604.061h13.539q5.542,0,8.551,2.551a8.669,8.669,0,0,1,3.011,6.99,9.5,9.5,0,0,1-.482,2.811,7.429,7.429,0,0,1-1.759,2.883,9.573,9.573,0,0,1-3.033,2.13,10.518,10.518,0,0,1,1.319,1.757,7.49,7.49,0,0,0,1.386,1.849,1.719,1.719,0,0,0,1.076.4,2.97,2.97,0,0,0,1.057-.31ZM939.71,616.9h4.483a3.222,3.222,0,0,0,2.155-.747,2.571,2.571,0,0,0,.878-2.069,2.826,2.826,0,0,0-.878-2.175,3.063,3.063,0,0,0-2.155-.814H939.71Z" transform="translate(-931.005 -604.061)"/></g><g transform="translate(83.921 36.246)"><path class="a" d="M958.132,633.5a15.9,15.9,0,0,1-5.537-.923,11.975,11.975,0,0,1-4.285-2.657,11.429,11.429,0,0,1-2.727-4.288,16.189,16.189,0,0,1-.943-5.668v-5.85a4.742,4.742,0,0,0-.287-1.91,1.012,1.012,0,0,0-.99-.594,1.264,1.264,0,0,0-.926.307l-.524-.307-1.1-6.022.309-.616a8,8,0,0,1,2.152-.792,11.549,11.549,0,0,1,2.641-.31,7,7,0,0,1,5.493,2.155q1.937,2.154,1.935,6.419v8.044a7.274,7.274,0,0,0,.441,2.44,4.049,4.049,0,0,0,1.6,2.046,5.163,5.163,0,0,0,5.5,0,4.085,4.085,0,0,0,1.606-2.046,7.408,7.408,0,0,0,.438-2.44V604.4H971.5v15.564a16.46,16.46,0,0,1-.926,5.668,11.338,11.338,0,0,1-2.679,4.288,11.816,11.816,0,0,1-4.241,2.657A15.741,15.741,0,0,1,958.132,633.5Z" transform="translate(-940.812 -603.871)"/></g><g transform="translate(116.323 36.776)"><path class="a" d="M985.8,625.427l1.1,6.022-.307.616a8.751,8.751,0,0,1-4.308,1.1,10.247,10.247,0,0,1-2.532-.329,5.609,5.609,0,0,1-2.13-.987,10.374,10.374,0,0,1-2.682-3.519H963.728A10.341,10.341,0,0,1,961,631.845a5.969,5.969,0,0,1-1.935.965,8.03,8.03,0,0,1-2.373.351,7.614,7.614,0,0,1-3.956-1.1l-.307-.616,1.1-6.022.527-.31a1.11,1.11,0,0,0,.4.2,1.725,1.725,0,0,0,.569.111,1.688,1.688,0,0,0,1.188-.572,7.649,7.649,0,0,0,1.23-2.11l8.133-18.684h7.475l8.835,18.684a8.155,8.155,0,0,0,1.364,2.242,1.544,1.544,0,0,0,1.054.441,1.714,1.714,0,0,0,.572-.111,1.131,1.131,0,0,0,.4-.2Zm-13.45-2.813-2.989-7.651-3.078,7.651Z" transform="translate(-952.433 -604.061)"/></g><g transform="translate(153.601 36.776)"><path class="a" d="M983.564,604.061h8.7v28.576h-6.508l-11.253-14.376v14.376h-8.7V604.061h6.508l11.253,14.376Z" transform="translate(-965.803 -604.061)"/></g><g transform="translate(184.064 36.246)"><path class="a" d="M992.688,633.5a17.459,17.459,0,0,1-6.243-1.118,15.821,15.821,0,0,1-5.122-3.123,14.023,14.023,0,0,1-3.385-4.745,14.628,14.628,0,0,1,0-11.652,14.06,14.06,0,0,1,3.385-4.748,15.769,15.769,0,0,1,5.122-3.12,17.9,17.9,0,0,1,12.486,0,15.77,15.77,0,0,1,5.122,3.12,14.1,14.1,0,0,1,3.385,4.748,14.4,14.4,0,0,1-3.385,16.375,15.591,15.591,0,0,1-5.122,3.145A17.471,17.471,0,0,1,992.688,633.5Zm0-7.821a7.814,7.814,0,0,0,2.242-.354,6.85,6.85,0,0,0,4.09-3.407,6.728,6.728,0,0,0,.745-3.231,7.633,7.633,0,0,0-.374-2.286,6.544,6.544,0,0,0-1.252-2.242,7.044,7.044,0,0,0-2.261-1.756,6.967,6.967,0,0,0-3.19-.705,7.911,7.911,0,0,0-2.242.351,6.827,6.827,0,0,0-4.087,3.41,6.679,6.679,0,0,0-.747,3.229,7.545,7.545,0,0,0,.374,2.286,6.511,6.511,0,0,0,1.252,2.242,6.989,6.989,0,0,0,2.264,1.759A6.9,6.9,0,0,0,992.688,625.68Z" transform="translate(-976.729 -603.871)"/></g><g transform="translate(218.049 36.246)"><path class="a" d="M988.918,627.877l3.778-4.662h.661a10.121,10.121,0,0,0,3.231,2.111,9.79,9.79,0,0,0,3.934.923,4.4,4.4,0,0,0,2.175-.482,1.443,1.443,0,0,0,.859-1.274,1.175,1.175,0,0,0-.307-.792,2.423,2.423,0,0,0-.834-.594q-.531-.243-3.167-1.079a20.915,20.915,0,0,1-6.243-2.855,7.6,7.6,0,0,1-2.571-3.142,8.981,8.981,0,0,1-.638-3.234,7.9,7.9,0,0,1,1.383-4.681,9.424,9.424,0,0,1,3.957-3.1,15.058,15.058,0,0,1,6.137-1.143,16.5,16.5,0,0,1,6.064,1.1,11.474,11.474,0,0,1,4.573,3.12v.878l-3.781,4.4h-.7a8.471,8.471,0,0,0-5.981-2.682,3.8,3.8,0,0,0-1.91.416,1.324,1.324,0,0,0-.725,1.21,1.707,1.707,0,0,0,.68,1.3,9.682,9.682,0,0,0,2.925,1.341,30.489,30.489,0,0,1,6.176,2.638,8.361,8.361,0,0,1,2.459,11.649,9.229,9.229,0,0,1-4,3.123,15.85,15.85,0,0,1-6.352,1.14,17,17,0,0,1-6.99-1.316,13.14,13.14,0,0,1-4.793-3.519Z" transform="translate(-988.918 -603.871)"/></g></g><g transform="translate(2.42)"><path class="b" d="M922.608,609.828a6.842,6.842,0,0,0,5.013,2,8.064,8.064,0,0,0,3.385-.769,8.308,8.308,0,0,0,2.769-2h.616l5.275,4.483v.616a15.431,15.431,0,0,1-2.682,2.484,15.04,15.04,0,0,1-4.219,2.155,15.791,15.791,0,0,1-5.144.856,17.4,17.4,0,0,1-6.243-1.121,15.459,15.459,0,0,1-5.1-3.123,14.169,14.169,0,0,1-3.363-4.745,14.484,14.484,0,0,1,3.363-16.4,15.585,15.585,0,0,1,5.1-3.12,17.4,17.4,0,0,1,6.243-1.121,15.865,15.865,0,0,1,6.77,1.472,14.885,14.885,0,0,1,5.275,4.023v.616l-5.275,4.48h-.616a8.3,8.3,0,0,0-2.769-2,8.026,8.026,0,0,0-3.385-.772,6.854,6.854,0,0,0-5.013,2,7.176,7.176,0,0,0,0,9.979Z" transform="translate(-911.357 -589.675)"/><path class="c" d="M927.844,620.226a17.833,17.833,0,0,1-6.365-1.143,15.928,15.928,0,0,1-5.214-3.193,14.559,14.559,0,0,1-3.446-4.86,14.83,14.83,0,0,1,3.446-16.8,15.961,15.961,0,0,1,5.211-3.19,17.816,17.816,0,0,1,6.368-1.143,16.271,16.271,0,0,1,6.917,1.506,15.342,15.342,0,0,1,5.4,4.115l.078.1v.9l-.123.106-5.373,4.561h-.9l-.1-.117a8.059,8.059,0,0,0-2.654-1.913,7.722,7.722,0,0,0-3.24-.739,6.539,6.539,0,0,0-4.768,1.9,6.42,6.42,0,0,0-1.915,4.74,6.341,6.341,0,0,0,1.915,4.743,6.54,6.54,0,0,0,4.768,1.9,7.722,7.722,0,0,0,3.24-.739,8.024,8.024,0,0,0,2.651-1.916l.106-.117h.9l.1.081,5.4,4.592v.9l-.078.095a16,16,0,0,1-2.741,2.543,15.416,15.416,0,0,1-4.319,2.205A16.2,16.2,0,0,1,927.844,620.226Zm0-29.63a17.118,17.118,0,0,0-6.12,1.1,15.258,15.258,0,0,0-4.985,3.05,14.126,14.126,0,0,0,0,20.632,15.208,15.208,0,0,0,4.988,3.053,17.088,17.088,0,0,0,6.117,1.1,15.534,15.534,0,0,0,5.033-.836,14.754,14.754,0,0,0,4.121-2.1,15.575,15.575,0,0,0,2.543-2.334v-.329l-5.055-4.3h-.332a8.743,8.743,0,0,1-2.78,1.968,8.41,8.41,0,0,1-3.53.8,7.212,7.212,0,0,1-5.258-2.1,7.525,7.525,0,0,1,0-10.475,7.212,7.212,0,0,1,5.258-2.1,8.41,8.41,0,0,1,3.53.8,8.739,8.739,0,0,1,2.777,1.966h.335l5.055-4.294v-.329a14.677,14.677,0,0,0-5.074-3.834A15.591,15.591,0,0,0,927.844,590.6Z" transform="translate(-911.581 -589.899)"/><g transform="translate(31.562 0.527)"><path class="b" d="M944.922,597.247H931.731V601.2h9.937v6.6h-9.937v3.956h13.191v7.034h-21.9V590.213h21.9Z" transform="translate(-922.677 -589.864)"/><path class="c" d="M945.494,619.361H922.9V590.088h22.593v7.732H932.3v3.257h9.937v7.294H932.3v3.259h13.191Zm-21.9-.7h21.2v-6.338H931.606v-4.653h9.937v-5.9h-9.937v-4.651H944.8v-6.338H923.6Z" transform="translate(-922.901 -590.088)"/></g><g transform="translate(55.287)"><path class="b" d="M965.7,591.3l.22.614-1.45,5.847-.527.307a1.807,1.807,0,0,0-1.628-.086,1.928,1.928,0,0,0-.594.572,13.73,13.73,0,0,0-1.076,2.111l-8.178,18.463h-7.472l-8.175-18.463q-.443-.966-.837-1.715a2.177,2.177,0,0,0-.836-.967,1.8,1.8,0,0,0-1.625.086l-.53-.307-1.45-5.847.22-.614a6.885,6.885,0,0,1,4.442-1.277,7.713,7.713,0,0,1,4.768,1.408,9.67,9.67,0,0,1,3.011,4.219l4.927,12.134,4.921-12.134a10.29,10.29,0,0,1,2.925-4.2,7.054,7.054,0,0,1,4.55-1.428,9.623,9.623,0,0,1,2.353.307A5.361,5.361,0,0,1,965.7,591.3Z" transform="translate(-931.176 -589.675)"/><path class="c" d="M952.926,619.7H945l-.092-.206-8.178-18.463q-.431-.954-.825-1.7a1.9,1.9,0,0,0-.683-.82,1.527,1.527,0,0,0-1.33.1l-.165.07-.806-.471-1.514-6.089.293-.809.075-.061a7.25,7.25,0,0,1,4.659-1.352,8.07,8.07,0,0,1,4.977,1.478,10.087,10.087,0,0,1,3.126,4.366l4.6,11.34,4.6-11.34a10.65,10.65,0,0,1,3.031-4.338,7.392,7.392,0,0,1,4.768-1.506,9.958,9.958,0,0,1,2.437.318,5.8,5.8,0,0,1,2.175,1.034l.075.059.293.811-.028.1L965,598.211l-.8.471-.165-.067a1.467,1.467,0,0,0-1.316-.106,1.509,1.509,0,0,0-.488.477,12.716,12.716,0,0,0-1.034,2.044Zm-7.472-.7h7.021l8.086-18.257a13.511,13.511,0,0,1,1.118-2.178,2.111,2.111,0,0,1,.714-.672,2,2,0,0,1,1.757.011l.251-.148,1.389-5.6-.151-.421a5.119,5.119,0,0,0-1.835-.845,9.337,9.337,0,0,0-2.264-.3,6.735,6.735,0,0,0-4.333,1.352,10,10,0,0,0-2.821,4.06l-5.242,12.926-5.25-12.929a9.389,9.389,0,0,0-2.9-4.074,7.414,7.414,0,0,0-4.559-1.336,6.66,6.66,0,0,0-4.146,1.14l-.151.421,1.389,5.6.254.148a2.019,2.019,0,0,1,1.768,0,2.425,2.425,0,0,1,.973,1.1c.268.5.547,1.082.845,1.734Z" transform="translate(-931.41 -589.899)"/></g><g transform="translate(91.614 0.527)"><path class="b" d="M962.678,597.117h-4.7v14.772h4.7v6.9H944.564v-6.9h4.706V597.117h-4.706v-6.9h18.115Z" transform="translate(-944.215 -589.864)"/><path class="c" d="M963.251,619.361H944.439v-7.6h4.707V597.688h-4.707v-7.6h18.812v7.6h-4.7v14.075h4.7Zm-18.115-.7h17.418v-6.2h-4.7V596.992h4.7v-6.207H945.136v6.207h4.706V612.46h-4.706Z" transform="translate(-944.439 -590.088)"/></g><g transform="translate(112.28)"><path class="b" d="M962.878,609.828a6.838,6.838,0,0,0,5.013,2,8.042,8.042,0,0,0,3.382-.769,8.291,8.291,0,0,0,2.771-2h.614l5.278,4.483v.616a15.63,15.63,0,0,1-2.682,2.484,15.016,15.016,0,0,1-4.221,2.155,15.774,15.774,0,0,1-5.141.856,17.409,17.409,0,0,1-6.246-1.121,15.487,15.487,0,0,1-5.1-3.123,14.482,14.482,0,0,1,0-21.146,15.614,15.614,0,0,1,5.1-3.12,17.409,17.409,0,0,1,6.246-1.121,15.854,15.854,0,0,1,6.767,1.472,14.9,14.9,0,0,1,5.278,4.023v.616l-5.278,4.48h-.614a8.279,8.279,0,0,0-2.771-2,8,8,0,0,0-3.382-.772,6.85,6.85,0,0,0-5.013,2,7.169,7.169,0,0,0,0,9.979Z" transform="translate(-951.627 -589.675)"/><path class="c" d="M968.114,620.226a17.848,17.848,0,0,1-6.368-1.143,15.983,15.983,0,0,1-5.214-3.193,14.834,14.834,0,0,1,0-21.658,16.016,16.016,0,0,1,5.211-3.19,17.832,17.832,0,0,1,6.371-1.143,16.249,16.249,0,0,1,6.915,1.506,15.33,15.33,0,0,1,5.4,4.115l.078.1v.9l-.123.106-5.376,4.561h-.9l-.1-.117a8.056,8.056,0,0,0-2.654-1.913,7.733,7.733,0,0,0-3.24-.739,6.539,6.539,0,0,0-4.768,1.9,6.424,6.424,0,0,0-1.918,4.74,6.343,6.343,0,0,0,1.918,4.743,6.539,6.539,0,0,0,4.768,1.9,7.732,7.732,0,0,0,3.24-.739,8.027,8.027,0,0,0,2.651-1.916l.106-.117h.9l.1.081,5.4,4.592v.9l-.078.095a16.137,16.137,0,0,1-2.744,2.543,15.376,15.376,0,0,1-4.319,2.205A16.184,16.184,0,0,1,968.114,620.226Zm0-29.63a17.144,17.144,0,0,0-6.123,1.1,15.29,15.29,0,0,0-4.985,3.05,14.126,14.126,0,0,0,0,20.632,15.239,15.239,0,0,0,4.988,3.053,17.1,17.1,0,0,0,6.12,1.1,15.518,15.518,0,0,0,5.03-.836,14.811,14.811,0,0,0,4.124-2.1,15.7,15.7,0,0,0,2.543-2.334v-.329l-5.058-4.3h-.332a8.684,8.684,0,0,1-2.78,1.968,8.407,8.407,0,0,1-3.527.8,7.208,7.208,0,0,1-5.259-2.1,7.518,7.518,0,0,1,0-10.475,7.208,7.208,0,0,1,5.259-2.1,8.408,8.408,0,0,1,3.527.8,8.677,8.677,0,0,1,2.777,1.966h.335l5.058-4.294v-.329a14.707,14.707,0,0,0-5.075-3.834A15.61,15.61,0,0,0,968.114,590.6Z" transform="translate(-951.851 -589.899)"/></g><g transform="translate(143.842 0.527)"><path class="b" d="M981.979,590.213h8.7v28.576h-8.7V608.06H972v10.729h-8.7V590.213H972v10.815h9.979Z" transform="translate(-962.947 -589.864)"/><path class="c" d="M991.256,619.361h-9.4V608.632h-9.282v10.729h-9.4V590.088h9.4V600.9h9.282V590.088h9.4Zm-8.7-.7h8.008V590.785h-8.008V601.6H971.876V590.785h-8.008v27.879h8.008V607.935h10.676Z" transform="translate(-963.171 -590.088)"/></g><g transform="translate(176.768 0.527)"><path class="b" d="M997,597.247H983.813V601.2h9.934v6.6h-9.934v3.956H997v7.034H975.1V590.213H997Z" transform="translate(-974.756 -589.864)"/><path class="c" d="M997.573,619.361H974.98V590.088h22.593v7.732H984.385v3.257h9.934v7.294h-9.934v3.259h13.188Zm-21.9-.7h21.2v-6.338H983.687v-4.653h9.934v-5.9h-9.934v-4.651h13.188v-6.338h-21.2Z" transform="translate(-974.98 -590.088)"/></g><g transform="translate(201.61)"><path class="b" d="M984.015,614.027l3.778-4.662h.658a10.17,10.17,0,0,0,3.234,2.111,9.732,9.732,0,0,0,3.934.923,4.4,4.4,0,0,0,2.175-.482,1.44,1.44,0,0,0,.859-1.274,1.168,1.168,0,0,0-.31-.792,2.43,2.43,0,0,0-.834-.594c-.354-.162-1.405-.518-3.165-1.079a20.9,20.9,0,0,1-6.245-2.855,7.578,7.578,0,0,1-2.568-3.142,8.9,8.9,0,0,1-.639-3.232,7.9,7.9,0,0,1,1.383-4.684,9.379,9.379,0,0,1,3.956-3.1,15,15,0,0,1,6.134-1.143,16.517,16.517,0,0,1,6.067,1.1,11.47,11.47,0,0,1,4.573,3.12v.881l-3.783,4.4h-.7a8.47,8.47,0,0,0-5.978-2.682,3.853,3.853,0,0,0-1.913.415,1.327,1.327,0,0,0-.725,1.21,1.721,1.721,0,0,0,.683,1.3,9.68,9.68,0,0,0,2.922,1.338,30.366,30.366,0,0,1,6.176,2.64,8.041,8.041,0,0,1,2.9,2.989,8.7,8.7,0,0,1-.44,8.657,9.227,9.227,0,0,1-4,3.123,15.855,15.855,0,0,1-6.354,1.143,17,17,0,0,1-6.99-1.319,13.067,13.067,0,0,1-4.79-3.518Z" transform="translate(-983.666 -589.675)"/><path class="c" d="M996.018,620.226a17.386,17.386,0,0,1-7.129-1.349,13.52,13.52,0,0,1-4.918-3.613l-.081-.095v-1.04l3.962-4.888h.97l.1.106a9.852,9.852,0,0,0,3.123,2.035,9.445,9.445,0,0,0,3.795.892,4.09,4.09,0,0,0,2-.435,1.113,1.113,0,0,0,.683-.973.856.856,0,0,0-.22-.563,2.2,2.2,0,0,0-.716-.508c-.237-.106-.973-.376-3.128-1.062a21.284,21.284,0,0,1-6.352-2.911,7.987,7.987,0,0,1-2.682-3.293,9.34,9.34,0,0,1-.661-3.357,8.258,8.258,0,0,1,1.45-4.885,9.712,9.712,0,0,1,4.1-3.215,15.412,15.412,0,0,1,6.276-1.174,16.943,16.943,0,0,1,6.2,1.124,11.875,11.875,0,0,1,4.706,3.215l.087.1v1.14l-3.971,4.617h-1l-.1-.1a8.163,8.163,0,0,0-5.735-2.585,3.5,3.5,0,0,0-1.737.371.974.974,0,0,0-.552.906,1.379,1.379,0,0,0,.563,1.037A9.513,9.513,0,0,0,997.845,601a30.846,30.846,0,0,1,6.251,2.674,8.71,8.71,0,0,1,2.562,12.142,9.643,9.643,0,0,1-4.149,3.243A16.31,16.31,0,0,1,996.018,620.226Zm-11.431-5.314a12.873,12.873,0,0,0,4.584,3.329,16.769,16.769,0,0,0,6.848,1.288,15.607,15.607,0,0,0,6.215-1.113,8.993,8.993,0,0,0,3.853-3,7.788,7.788,0,0,0-2.361-11.155,30.4,30.4,0,0,0-6.1-2.6,9.873,9.873,0,0,1-3.039-1.4,2.064,2.064,0,0,1-.8-1.564,1.681,1.681,0,0,1,.9-1.511,4.186,4.186,0,0,1,2.085-.463,8.786,8.786,0,0,1,6.117,2.682h.4l3.594-4.177V594.6a11.238,11.238,0,0,0-4.352-2.927,16.306,16.306,0,0,0-5.939-1.074,14.755,14.755,0,0,0-5.992,1.113,9.1,9.1,0,0,0-3.814,2.981,7.6,7.6,0,0,0-1.319,4.483,8.63,8.63,0,0,0,.613,3.106,7.263,7.263,0,0,0,2.459,2.992,20.7,20.7,0,0,0,6.137,2.8c1.779.566,2.827.923,3.2,1.093a2.754,2.754,0,0,1,.951.683,1.511,1.511,0,0,1,.4,1.021,1.779,1.779,0,0,1-1.035,1.581,4.769,4.769,0,0,1-2.347.524,10.139,10.139,0,0,1-4.076-.954,10.8,10.8,0,0,1-3.237-2.08h-.346l-3.6,4.436Z" transform="translate(-983.89 -589.899)"/></g><g transform="translate(1.539 36.773)"><path class="b" d="M925.8,603.213q5.5,0,8.529,2.638a9.847,9.847,0,0,1,.042,14.178q-2.986,2.614-8.571,2.615h-4.835v9.145h-8.7V603.213Zm-.307,12.839a3.07,3.07,0,0,0,2.133-.772,2.658,2.658,0,0,0,.856-2.089,2.785,2.785,0,0,0-.856-2.152,3.021,3.021,0,0,0-2.133-.792h-4.528v5.8Z" transform="translate(-911.909 -602.864)"/><path class="c" d="M921.535,632.361h-9.4V603.088h13.888c3.736,0,6.683.917,8.758,2.724a10.192,10.192,0,0,1,.042,14.7c-2.047,1.793-5.008,2.7-8.8,2.7h-4.486Zm-8.7-.7h8.008v-9.145h5.183c3.616,0,6.424-.85,8.342-2.526a9.5,9.5,0,0,0-.042-13.654c-1.946-1.7-4.737-2.554-8.3-2.554H912.83Zm12.884-15.039h-4.877v-6.5h4.877a3.364,3.364,0,0,1,2.367.884,3.133,3.133,0,0,1,.97,2.409,3,3,0,0,1-.973,2.347A3.41,3.41,0,0,1,925.714,616.625Zm-4.18-.7h4.18a2.707,2.707,0,0,0,1.9-.683,2.309,2.309,0,0,0,.742-1.829,2.438,2.438,0,0,0-.744-1.9,2.667,2.667,0,0,0-1.9-.7h-4.18Z" transform="translate(-912.133 -603.088)"/></g><g transform="translate(30.115 36.773)"><path class="b" d="M944.4,610.247H931.212V614.2h9.934v6.6h-9.934v3.956H944.4v7.034H922.507V603.213H944.4Z" transform="translate(-922.158 -602.864)"/><path class="c" d="M944.972,632.361h-22.59V603.088h22.59v7.732H931.784v3.256h9.934v7.294h-9.934v3.26h13.188Zm-21.893-.7h21.2v-6.338H931.087v-4.653h9.934v-5.9h-9.934v-4.651h13.188v-6.338h-21.2Z" transform="translate(-922.382 -603.088)"/></g><g transform="translate(56.578 36.773)"><path class="b" d="M957.189,624.579l1.45,5.847-.218.616a5.49,5.49,0,0,1-2,.923,9.367,9.367,0,0,1-2.44.351,8.371,8.371,0,0,1-4.573-1.1,10.471,10.471,0,0,1-3.209-3.692.906.906,0,0,1-.131-.22c-.062-.117-.4-.742-1.012-1.868a12.645,12.645,0,0,0-1.868-2.682,2.619,2.619,0,0,0-1.782-.99h-.7v10.023H932V603.213h13.539q5.542,0,8.551,2.551a8.665,8.665,0,0,1,3.011,6.99,9.507,9.507,0,0,1-.482,2.813,7.418,7.418,0,0,1-1.759,2.88,9.588,9.588,0,0,1-3.033,2.133,10.347,10.347,0,0,1,1.319,1.754,7.58,7.58,0,0,0,1.386,1.851,1.731,1.731,0,0,0,1.076.393,3.01,3.01,0,0,0,1.057-.307ZM940.7,616.052h4.483a3.211,3.211,0,0,0,2.155-.75,2.57,2.57,0,0,0,.878-2.066,2.821,2.821,0,0,0-.878-2.175,3.049,3.049,0,0,0-2.155-.814H940.7Z" transform="translate(-931.649 -602.864)"/><path class="c" d="M954.2,632.888a8.764,8.764,0,0,1-4.76-1.152,10.875,10.875,0,0,1-3.31-3.786,1.458,1.458,0,0,1-.156-.27c-.058-.112-.393-.728-1.006-1.854a12.207,12.207,0,0,0-1.812-2.6,2.31,2.31,0,0,0-1.531-.884h-.354v10.023h-9.4V603.088h13.888c3.764,0,6.717.884,8.777,2.632a9.041,9.041,0,0,1,3.134,7.258,9.932,9.932,0,0,1-.5,2.917,7.8,7.8,0,0,1-1.837,3.017,9.847,9.847,0,0,1-2.713,2,12.68,12.68,0,0,1,1.037,1.458,7,7,0,0,0,1.308,1.759,1.373,1.373,0,0,0,.862.321,2.627,2.627,0,0,0,.917-.276l.162-.073.809.471,1.508,6.089-.284.809-.075.061a5.9,5.9,0,0,1-2.13.99A9.823,9.823,0,0,1,954.2,632.888ZM940.578,621.64h1.051a2.939,2.939,0,0,1,2.035,1.1,12.933,12.933,0,0,1,1.918,2.755c.619,1.129.959,1.759,1.018,1.876a1.607,1.607,0,0,0,.081.148,10.381,10.381,0,0,0,3.139,3.63,8.084,8.084,0,0,0,4.383,1.043,9.045,9.045,0,0,0,2.35-.34,5.267,5.267,0,0,0,1.8-.8l.15-.418-1.388-5.6-.251-.145a2.887,2.887,0,0,1-1.031.268,2.063,2.063,0,0,1-1.291-.468,7.666,7.666,0,0,1-1.469-1.943,9.96,9.96,0,0,0-1.268-1.69l-.354-.354.46-.212a9.156,9.156,0,0,0,2.922-2.052,7.116,7.116,0,0,0,1.681-2.746,9.265,9.265,0,0,0,.466-2.707,8.37,8.37,0,0,0-2.888-6.722c-1.932-1.64-4.732-2.47-8.325-2.47H932.57v27.879h8.008Zm4.832-5.016h-4.832v-6.5h4.832a3.4,3.4,0,0,1,2.392.906,3.162,3.162,0,0,1,.99,2.431,2.914,2.914,0,0,1-1,2.331A3.564,3.564,0,0,1,945.409,616.625Zm-4.135-.7h4.135a2.859,2.859,0,0,0,1.929-.666,2.217,2.217,0,0,0,.755-1.8,2.464,2.464,0,0,0-.767-1.921,2.7,2.7,0,0,0-1.918-.719h-4.135Z" transform="translate(-931.873 -603.088)"/></g><g transform="translate(83.907 36.246)"><path class="b" d="M959.126,632.654a15.973,15.973,0,0,1-5.54-.923,12.006,12.006,0,0,1-4.285-2.66,11.366,11.366,0,0,1-2.724-4.288,16.125,16.125,0,0,1-.945-5.668v-5.849a4.706,4.706,0,0,0-.287-1.91,1.013,1.013,0,0,0-.99-.594,1.254,1.254,0,0,0-.923.307l-.527-.307-1.1-6.023.307-.616a7.988,7.988,0,0,1,2.153-.792,11.688,11.688,0,0,1,2.64-.307,7,7,0,0,1,5.493,2.152q1.936,2.158,1.935,6.421v8.044a7.343,7.343,0,0,0,.44,2.44,4.044,4.044,0,0,0,1.6,2.044,5.163,5.163,0,0,0,5.5,0,4.063,4.063,0,0,0,1.606-2.044,7.338,7.338,0,0,0,.438-2.44v-16.09h8.573v15.563a16.455,16.455,0,0,1-.926,5.668,11.346,11.346,0,0,1-2.677,4.288,11.831,11.831,0,0,1-4.244,2.66A15.8,15.8,0,0,1,959.126,632.654Z" transform="translate(-941.441 -602.675)"/><path class="c" d="M959.36,633.226a16.378,16.378,0,0,1-5.66-.945,12.4,12.4,0,0,1-4.408-2.735,11.816,11.816,0,0,1-2.811-4.419,16.574,16.574,0,0,1-.965-5.788v-5.849a4.232,4.232,0,0,0-.254-1.76.665.665,0,0,0-.675-.4.91.91,0,0,0-.675.206l-.192.19-.895-.524-1.152-6.3.407-.814.089-.05a8.446,8.446,0,0,1,2.25-.831,12.078,12.078,0,0,1,2.719-.315,7.362,7.362,0,0,1,5.752,2.267c1.344,1.495,2.024,3.736,2.024,6.655v8.044a7.013,7.013,0,0,0,.421,2.323,3.72,3.72,0,0,0,1.472,1.871,4.8,4.8,0,0,0,5.1,0,3.688,3.688,0,0,0,1.472-1.868,7.051,7.051,0,0,0,.418-2.325V603.426h9.271v15.912a16.925,16.925,0,0,1-.945,5.788,11.722,11.722,0,0,1-2.763,4.417A12.2,12.2,0,0,1,965,632.281,16.242,16.242,0,0,1,959.36,633.226Zm-14.772-22.59a1.357,1.357,0,0,1,1.3.789,4.924,4.924,0,0,1,.323,2.063v5.849a15.85,15.85,0,0,0,.923,5.546,11.164,11.164,0,0,0,2.641,4.163,11.715,11.715,0,0,0,4.162,2.579,15.629,15.629,0,0,0,5.42.9,15.427,15.427,0,0,0,5.4-.9,11.6,11.6,0,0,0,4.121-2.577,11.121,11.121,0,0,0,2.6-4.163,16.216,16.216,0,0,0,.9-5.548V604.123H964.5v15.742a7.764,7.764,0,0,1-.457,2.554,4.441,4.441,0,0,1-1.74,2.219,5.518,5.518,0,0,1-5.886,0,4.427,4.427,0,0,1-1.737-2.219,7.664,7.664,0,0,1-.46-2.554v-8.044c0-2.744-.622-4.826-1.843-6.187a6.715,6.715,0,0,0-5.236-2.038,11.335,11.335,0,0,0-2.56.3,7.744,7.744,0,0,0-1.968.7l-.209.415,1.048,5.752.187.109A1.751,1.751,0,0,1,944.589,610.636Z" transform="translate(-941.675 -602.899)"/></g><g transform="translate(116.306 36.773)"><path class="b" d="M986.792,624.579l1.1,6.023-.307.616a8.725,8.725,0,0,1-4.308,1.1,10.084,10.084,0,0,1-2.529-.332,5.6,5.6,0,0,1-2.133-.987,10.312,10.312,0,0,1-2.682-3.519H964.724A10.315,10.315,0,0,1,962,631a5.979,5.979,0,0,1-1.932.968,8.058,8.058,0,0,1-2.376.351,7.6,7.6,0,0,1-3.956-1.1l-.307-.616,1.1-6.023.527-.307a1.126,1.126,0,0,0,.4.2,1.516,1.516,0,0,0,1.757-.46,7.713,7.713,0,0,0,1.233-2.111l8.133-18.683h7.472l8.836,18.683a8.159,8.159,0,0,0,1.363,2.242,1.543,1.543,0,0,0,1.054.44,1.647,1.647,0,0,0,.572-.111,1.117,1.117,0,0,0,.4-.2Zm-13.453-2.813-2.989-7.651-3.075,7.651Z" transform="translate(-953.061 -602.864)"/><path class="c" d="M983.51,632.888a10.651,10.651,0,0,1-2.618-.34,5.994,5.994,0,0,1-2.259-1.054,10.438,10.438,0,0,1-2.677-3.443h-10.79a10.492,10.492,0,0,1-2.724,3.449,6.305,6.305,0,0,1-2.041,1.021,8.358,8.358,0,0,1-2.479.368,7.974,7.974,0,0,1-4.132-1.149l-.092-.05-.4-.811.022-.114,1.129-6.181.9-.521.192.187h0a1.173,1.173,0,0,0,.262.114,1.147,1.147,0,0,0,1.4-.379,7.192,7.192,0,0,0,1.157-2l8.228-18.9H974.5l.1.2,8.836,18.686a7.831,7.831,0,0,0,1.291,2.141,1.12,1.12,0,0,0,1.266.251,1.17,1.17,0,0,0,.27-.12l.192-.19.89.527,1.152,6.3-.41.817-.095.05A9.081,9.081,0,0,1,983.51,632.888Zm-18.767-5.534h11.632l.1.187a10.111,10.111,0,0,0,2.582,3.4,5.248,5.248,0,0,0,2.01.931,8.847,8.847,0,0,0,6.488-.683l.206-.413-1.048-5.752-.2-.12a2.054,2.054,0,0,1-.293.117,1.808,1.808,0,0,1-1.971-.4,8.074,8.074,0,0,1-1.447-2.353l-8.741-18.48h-7.024l-8.044,18.474a7.853,7.853,0,0,1-1.288,2.2,1.851,1.851,0,0,1-2.136.555,2.015,2.015,0,0,1-.287-.115l-.2.12-1.048,5.752.209.418a7.287,7.287,0,0,0,3.689,1,7.732,7.732,0,0,0,2.272-.337,5.651,5.651,0,0,0,1.821-.909,9.961,9.961,0,0,0,2.629-3.4Zm9.34-5.016h-7.09l3.6-8.944Zm-6.061-.7h5.044l-2.487-6.357Z" transform="translate(-953.295 -603.088)"/></g><g transform="translate(153.601 36.773)"><path class="b" d="M984.557,603.213h8.7v28.576h-6.508L975.5,617.413v14.376h-8.7V603.213H973.3l11.253,14.376Z" transform="translate(-966.447 -602.864)"/><path class="c" d="M993.833,632.361H986.81l-.109-.134-10.628-13.581v13.715h-9.4V603.088h7.023l.106.134L984.432,616.8V603.088h9.4Zm-6.686-.7h5.989V603.785h-8.008v15.039l-11.772-15.039h-5.989v27.879h8.008V616.627Z" transform="translate(-966.671 -603.088)"/></g><g transform="translate(184.067 36.246)"><path class="b" d="M993.68,632.654a17.406,17.406,0,0,1-6.243-1.121,15.766,15.766,0,0,1-5.122-3.123,14.037,14.037,0,0,1-3.385-4.745,14.661,14.661,0,0,1,0-11.652,14.13,14.13,0,0,1,3.385-4.748,15.9,15.9,0,0,1,5.122-3.12,17.951,17.951,0,0,1,12.488,0,15.851,15.851,0,0,1,5.119,3.12,14.129,14.129,0,0,1,3.385,4.748,14.314,14.314,0,0,1,1.21,5.824,14.165,14.165,0,0,1-1.21,5.805,14.34,14.34,0,0,1-3.385,4.745,15.487,15.487,0,0,1-5.119,3.145A17.442,17.442,0,0,1,993.68,632.654Zm0-7.824a7.809,7.809,0,0,0,2.242-.354,6.849,6.849,0,0,0,4.09-3.407,6.718,6.718,0,0,0,.745-3.231,7.689,7.689,0,0,0-.371-2.283,6.6,6.6,0,0,0-1.255-2.244,6.979,6.979,0,0,0-5.451-2.462,7.884,7.884,0,0,0-2.239.351,6.952,6.952,0,0,0-2.267,1.188,6.881,6.881,0,0,0-1.823,2.222,6.684,6.684,0,0,0-.747,3.229,7.535,7.535,0,0,0,.374,2.286,6.486,6.486,0,0,0,1.252,2.242,7.015,7.015,0,0,0,2.264,1.759A6.912,6.912,0,0,0,993.68,624.83Z" transform="translate(-977.374 -602.675)"/><path class="c" d="M993.9,633.226a17.833,17.833,0,0,1-6.365-1.143,16.215,16.215,0,0,1-5.236-3.193,14.444,14.444,0,0,1-3.466-4.86,15.007,15.007,0,0,1,0-11.936,14.573,14.573,0,0,1,3.466-4.863,16.285,16.285,0,0,1,5.234-3.19,18.3,18.3,0,0,1,12.734,0,16.265,16.265,0,0,1,5.236,3.19,14.558,14.558,0,0,1,3.469,4.863,14.774,14.774,0,0,1,1.238,5.966,14.629,14.629,0,0,1-4.707,10.807,16.007,16.007,0,0,1-5.233,3.215A17.87,17.87,0,0,1,993.9,633.226Zm0-29.63a17.131,17.131,0,0,0-6.12,1.1,15.571,15.571,0,0,0-5.007,3.05,13.794,13.794,0,0,0-3.3,4.634,14.316,14.316,0,0,0,0,11.367,13.782,13.782,0,0,0,3.3,4.631,15.518,15.518,0,0,0,5.01,3.053,17.6,17.6,0,0,0,12.24,0,15.273,15.273,0,0,0,5-3.075,14.058,14.058,0,0,0,3.3-4.631,13.9,13.9,0,0,0,1.179-5.663,14.045,14.045,0,0,0-1.179-5.682,13.838,13.838,0,0,0-3.3-4.634,15.543,15.543,0,0,0-5.008-3.05A17.141,17.141,0,0,0,993.9,603.6Zm0,21.806a7.336,7.336,0,0,1-5.719-2.59,6.856,6.856,0,0,1-1.316-2.359,7.915,7.915,0,0,1-.39-2.392,7.093,7.093,0,0,1,.786-3.4,7.188,7.188,0,0,1,4.3-3.577,7.575,7.575,0,0,1,5.688.379,7.414,7.414,0,0,1,2.373,1.843,6.97,6.97,0,0,1,1.319,2.364,8.043,8.043,0,0,1,.388,2.386,7.073,7.073,0,0,1-.786,3.4,7.271,7.271,0,0,1-1.918,2.328,7.186,7.186,0,0,1-2.381,1.246A8.232,8.232,0,0,1,993.9,625.4Zm0-13.983a7.589,7.589,0,0,0-2.141.338,6.469,6.469,0,0,0-3.881,3.24,6.374,6.374,0,0,0-.705,3.064,7.224,7.224,0,0,0,.357,2.181,6.212,6.212,0,0,0,1.188,2.125,6.746,6.746,0,0,0,7.325,2,6.475,6.475,0,0,0,3.881-3.237,6.389,6.389,0,0,0,.705-3.067,7.315,7.315,0,0,0-.357-2.18,6.293,6.293,0,0,0-1.185-2.125,6.757,6.757,0,0,0-2.155-1.667A6.609,6.609,0,0,0,993.9,611.42Z" transform="translate(-977.598 -602.899)"/></g><g transform="translate(218.049 36.246)"><path class="b" d="M989.911,627.027l3.781-4.662h.658a10.123,10.123,0,0,0,3.231,2.111,9.745,9.745,0,0,0,3.934.923,4.391,4.391,0,0,0,2.175-.482,1.435,1.435,0,0,0,.859-1.274,1.179,1.179,0,0,0-.307-.792,2.429,2.429,0,0,0-.834-.594c-.354-.162-1.408-.518-3.167-1.079A20.91,20.91,0,0,1,994,618.323a7.565,7.565,0,0,1-2.571-3.142,8.955,8.955,0,0,1-.636-3.232,7.9,7.9,0,0,1,1.383-4.684,9.361,9.361,0,0,1,3.956-3.1,14.985,14.985,0,0,1,6.134-1.143,16.528,16.528,0,0,1,6.067,1.1,11.483,11.483,0,0,1,4.57,3.12v.881l-3.781,4.4h-.7a8.471,8.471,0,0,0-5.981-2.682,3.842,3.842,0,0,0-1.91.415,1.327,1.327,0,0,0-.725,1.21,1.718,1.718,0,0,0,.68,1.3,9.715,9.715,0,0,0,2.925,1.338,30.436,30.436,0,0,1,6.176,2.64,8.065,8.065,0,0,1,2.9,2.989,8.157,8.157,0,0,1,.945,3.912,8.057,8.057,0,0,1-1.386,4.745,9.234,9.234,0,0,1-4,3.123,15.848,15.848,0,0,1-6.351,1.143,17,17,0,0,1-6.99-1.319,13.1,13.1,0,0,1-4.793-3.519Z" transform="translate(-989.562 -602.675)"/><path class="c" d="M1001.917,633.226a17.4,17.4,0,0,1-7.132-1.35,13.542,13.542,0,0,1-4.918-3.613l-.081-.095v-1.04l3.962-4.888h.973l.1.106a9.785,9.785,0,0,0,3.123,2.035,9.421,9.421,0,0,0,3.792.892,4.108,4.108,0,0,0,2-.435,1.114,1.114,0,0,0,.68-.973.841.841,0,0,0-.22-.563,2.137,2.137,0,0,0-.716-.508c-.237-.106-.97-.376-3.128-1.062a21.225,21.225,0,0,1-6.349-2.911,7.943,7.943,0,0,1-2.682-3.293,9.343,9.343,0,0,1-.661-3.357,8.256,8.256,0,0,1,1.447-4.885,9.74,9.74,0,0,1,4.1-3.215,15.412,15.412,0,0,1,6.276-1.174,16.916,16.916,0,0,1,6.192,1.124,11.887,11.887,0,0,1,4.709,3.215l.084.1v1.14l-3.971,4.617h-1l-.1-.1a8.169,8.169,0,0,0-5.738-2.585,3.517,3.517,0,0,0-1.737.371.972.972,0,0,0-.549.906,1.375,1.375,0,0,0,.56,1.037,9.548,9.548,0,0,0,2.805,1.272,30.715,30.715,0,0,1,6.251,2.674,8.7,8.7,0,0,1,2.562,12.142,9.651,9.651,0,0,1-4.146,3.243A16.322,16.322,0,0,1,1001.917,633.226Zm-11.434-5.314a12.907,12.907,0,0,0,4.587,3.329,16.751,16.751,0,0,0,6.848,1.288,15.584,15.584,0,0,0,6.212-1.113,8.957,8.957,0,0,0,3.853-3,7.788,7.788,0,0,0-2.361-11.155,30.426,30.426,0,0,0-6.1-2.6,9.9,9.9,0,0,1-3.042-1.4,2.07,2.07,0,0,1-.8-1.564,1.679,1.679,0,0,1,.9-1.511,4.2,4.2,0,0,1,2.085-.463,8.791,8.791,0,0,1,6.12,2.682h.4l3.594-4.177V607.6a11.227,11.227,0,0,0-4.35-2.928,16.315,16.315,0,0,0-5.939-1.073,14.77,14.77,0,0,0-5.995,1.113,9.137,9.137,0,0,0-3.814,2.98,7.616,7.616,0,0,0-1.316,4.483,8.688,8.688,0,0,0,.611,3.106,7.307,7.307,0,0,0,2.459,2.992,20.729,20.729,0,0,0,6.137,2.8c1.782.566,2.83.923,3.206,1.093a2.786,2.786,0,0,1,.951.683,1.522,1.522,0,0,1,.393,1.021,1.774,1.774,0,0,1-1.035,1.581,4.769,4.769,0,0,1-2.347.524,10.14,10.14,0,0,1-4.076-.954,10.792,10.792,0,0,1-3.237-2.08h-.346l-3.6,4.436Z" transform="translate(-989.786 -602.899)"/></g></g></g><g transform="translate(904.322 589.966)"><path class="b" d="M1167.531,698.992h-114.7V696.2h114.7a14.342,14.342,0,0,0,14.326-14.326v-83a14.342,14.342,0,0,0-14.326-14.326H921.438a14.345,14.345,0,0,0-14.328,14.326v81.445h-2.788V598.883a17.134,17.134,0,0,1,17.117-17.114h246.093a17.133,17.133,0,0,1,17.114,17.114v83A17.133,17.133,0,0,1,1167.531,698.992Z" transform="translate(-904.322 -581.769)"/></g><g transform="translate(923.627 577.185)"><path class="d" d="M939.518,591.321a14.136,14.136,0,1,1-14.136-14.136A14.136,14.136,0,0,1,939.518,591.321Z" transform="translate(-911.246 -577.185)"/><path class="e" d="M923.733,589.52v1.347h-5.312V589.52a13.09,13.09,0,0,1,1.771-.2v-6.94l-1.784.714-.312-1.726,2.688-.976h1.475v8.928a12.551,12.551,0,0,1,1.475.2" transform="translate(-898.999 -571.456)"/><path class="e" d="M915.432,590.867v-1.648l1.553-1.522c2.426-2.378,2.838-3.075,2.838-3.915a1.531,1.531,0,0,0-1.729-1.539,3.908,3.908,0,0,0-2.189.73l-.4-1.807a6.307,6.307,0,0,1,3.028-.778c2.442,0,3.519,1.458,3.519,3.045,0,1.363-.538,2.409-2.568,4.327l-1.252,1.174v.014c.744-.014,1.776-.031,2.933-.031h1.269v1.949Z" transform="translate(-903.76 -571.456)"/><path class="b" d="M4.71,10.519H0V9.265a11.106,11.106,0,0,1,1.348-.186V1.5A11.568,11.568,0,0,1,0,1.315V.06H1.21c.2,0,.565-.01.947-.021h.019C2.771.021,3.513,0,4.153,0,6.674,0,8.12,1.18,8.12,3.237c0,2.135-1.682,3.626-4.09,3.626a5,5,0,0,1-.668-.033V9.079a10.786,10.786,0,0,1,1.348.186v1.255ZM4.06,1.641c-.249,0-.464,0-.7.015V5.144a4,4,0,0,0,.59.045A1.856,1.856,0,0,0,6.03,3.363C6.03,2.236,5.349,1.641,4.06,1.641Z" transform="translate(3.208 8.861)"/></g></g></svg>